<svg id="SvgjsSvg1013" width="288" height="288" xmlns="http://www.w3.org/2000/svg" version="1.1" xmlns:xlink="http://www.w3.org/1999/xlink" xmlns:svgjs="http://svgjs.com/svgjs"><defs id="SvgjsDefs1014"></defs><g id="SvgjsG1015"><svg xmlns="http://www.w3.org/2000/svg" xmlns:svgjs="http://svgjs.com/svgjs" xmlns:xlink="http://www.w3.org/1999/xlink" width="288" height="288"><svg xmlns="http://www.w3.org/2000/svg" width="288" height="288" enable-background="new 0 0 424.05 424.05" viewBox="0 0 424.05 424.05"><path fill="#222222" d="M384.998 216.773h-27.4c-8.192-17.55-20.955-33.479-37.333-46.57-.332-19.494-1.73-34.292-4.258-45.135-3.916-16.8-11.332-25.318-22.044-25.318-11.688 0-36.557 14.617-55.683 36.111-8.61-1.206-17.376-1.815-26.132-1.815-41.302 0-80.216 13.259-109.573 37.335-26.628 21.838-42.603 50.217-45.808 80.879-11.952-3.951-20.603-15.22-20.603-28.478 0-5.523-4.478-10-10-10s-10 4.477-10 10c0 24.278 17.4 44.561 40.382 49.055 2.684 31.874 19.432 61.902 47.066 84.162l-8.59 48.716c-.461 2.612.135 5.299 1.656 7.472 1.521 2.172 3.843 3.652 6.455 4.112l37.423 6.599c2.611.458 5.299-.136 7.472-1.657s3.652-3.843 4.112-6.455l5.37-30.452c17.417 5.423 35.741 8.166 54.638 8.166 18.896 0 37.22-2.742 54.637-8.166l5.37 30.452c.46 2.612 1.939 4.934 4.112 6.455 1.692 1.185 3.697 1.809 5.735 1.809.578 0 1.159-.05 1.736-.152l37.423-6.599c5.439-.959 9.07-6.146 8.111-11.584L320.684 357c16.18-13.031 28.791-28.827 36.913-46.227h27.4c12.621 0 22.889-10.268 22.889-22.888v-48.224C407.886 227.041 397.619 216.773 384.998 216.773zM384.998 290.773h-33.975c-4.103 0-7.788 2.505-9.298 6.319-7.2 18.187-20.298 34.661-37.879 47.641-3.054 2.254-4.567 6.043-3.908 9.781l7.903 44.825-17.728 3.126-5.675-32.183c-.52-2.948-2.333-5.509-4.941-6.978-2.61-1.469-5.74-1.69-8.529-.607-18.441 7.167-38.231 10.802-58.82 10.802-20.59 0-40.38-3.634-58.821-10.802-2.79-1.083-5.92-.862-8.529.607-2.608 1.469-4.422 4.029-4.941 6.978l-5.675 32.183-17.727-3.126 7.903-44.825c.659-3.738-.854-7.527-3.908-9.781-28.149-20.782-44.294-50.291-44.294-80.96 0-60.504 61.006-109.728 135.992-109.728 9.555 0 19.116.811 28.417 2.411 3.554.611 7.162-.738 9.442-3.532 15.791-19.345 36.247-31.284 43-32.982 1.735 2.493 6.99 13.476 7.317 55.296.024 3.13 1.514 6.068 4.022 7.939 17.322 12.915 30.247 29.263 37.378 47.276 1.51 3.814 5.195 6.319 9.298 6.319h33.975c1.593 0 2.889 1.295 2.889 2.888v4.505h-.861c-5.522 0-10 4.477-10 10s4.478 10 10 10h.861v23.718C387.886 289.478 386.59 290.773 384.998 290.773zM212.148 107c29.5 0 53.5-24 53.5-53.5s-24-53.5-53.5-53.5-53.5 24-53.5 53.5S182.648 107 212.148 107zM212.148 20c18.472 0 33.5 15.028 33.5 33.5S230.62 87 212.148 87s-33.5-15.028-33.5-33.5S193.676 20 212.148 20z" class="color000 svgShape color3a9046"></path><path fill="#222222" d="M251.267,177.643c-12.492-3.968-25.653-5.98-39.119-5.98c-13.465,0-26.627,2.012-39.12,5.98		c-5.264,1.672-8.176,7.294-6.504,12.558c1.673,5.264,7.294,8.176,12.559,6.503c10.532-3.345,21.657-5.042,33.065-5.042
		s22.533,1.696,33.064,5.042c1.007,0.32,2.026,0.472,3.03,0.472c4.239,0,8.176-2.719,9.527-6.976
		C259.443,184.938,256.531,179.315,251.267,177.643z" class="color000 svgShape color3a9046"></path></svg></svg></g></svg>