<svg fill="#c67d4e" width="30px" height="30px"  data-name="Capa 1" xmlns="http://www.w3.org/2000/svg" viewBox="0 0 477.1 499"><path d="M238.6,281.4C84.8,281.4,0,348.2,0,480.3A18.74,18.74,0,0,0,18.7,499H458.4a18.74,18.74,0,0,0,18.7-18.7C477.2,348.2,392.4,281.4,238.6,281.4ZM38.1,461.6c7.3-98.8,74.7-142.9,200.5-142.9s193.2,44.1,200.5,142.9Z"/><path d="M238.6,0c-70.7,0-124,54.4-124,126.4,0,74.2,55.6,134.5,124,134.5s124-60.4,124-134.5C362.6,54.4,309.3,0,238.6,0Zm0,223.6c-47.7,0-86.6-43.6-86.6-97.2,0-51.6,36.4-89.1,86.6-89.1,49.4,0,86.6,38.3,86.6,89.1C325.2,180,286.3,223.6,238.6,223.6Z"/></svg>